<?xml version="1.0" encoding="UTF-8"?>
<svg version="1.1" xmlns="http://www.w3.org/2000/svg" width="368" height="216">
<path d="M0 0 C1.14625854 0.00821777 1.14625854 0.00821777 2.31567383 0.01660156 C3.50930542 0.02288574 3.50930542 0.02288574 4.72705078 0.02929688 C48.92014739 0.83852081 84.79481632 21.57116403 114.84106445 52.62744141 C118.62827507 56.65626589 122.03413119 60.97950475 125.44067383 65.32910156 C152.94290618 99.52627313 184.17455257 123.31924092 228.71020508 128.89550781 C258.85042153 132.07255363 289.12917934 126.55181147 317.77563477 117.47680664 C318.72212891 117.18314209 319.66862305 116.88947754 320.64379883 116.58691406 C321.47556641 116.32023926 322.30733398 116.05356445 323.16430664 115.77880859 C325.67713369 115.28238781 327.07167735 115.38182507 329.44067383 116.32910156 C334.37277927 123.53174149 340.59548529 136.25705183 340.37036133 145.08691406 C339.44067383 147.32910156 339.44067383 147.32910156 337.42114258 148.70019531 C334.11036851 149.96430905 330.79788888 151.19492955 327.44067383 152.32910156 C326.75038086 152.56773926 326.06008789 152.80637695 325.34887695 153.05224609 C273.93038613 170.5295232 215.74854263 170.36347818 166.44067383 146.32910156 C154.95093128 140.4026634 144.36195079 133.61144767 134.44067383 125.32910156 C133.84883301 124.8426416 133.25699219 124.35618164 132.6472168 123.85498047 C125.65800314 118.0979745 119.2048837 112.3373855 113.44067383 105.32910156 C111.98813922 103.7196824 110.52937241 102.11587429 109.06567383 100.51660156 C105.95538532 97.07531951 102.97589071 93.56588858 100.06567383 89.95410156 C96.3329382 85.34038812 92.42500774 80.94542275 88.38427734 76.60351562 C85.83760499 73.86623344 83.38533883 71.08472444 81.00317383 68.20410156 C63.27519987 47.96152137 36.78420769 36.81313458 10.28051758 34.86425781 C8.04535721 34.73594091 5.81902556 34.64379942 3.58056641 34.60546875 C-0.03560558 34.53435784 -1.44851727 34.40297416 -4.55932617 32.32910156 C-5.28604801 29.68239858 -5.81996515 27.21322806 -6.24682617 24.51660156 C-6.37275146 23.75919678 -6.49867676 23.00179199 -6.62841797 22.22143555 C-7.64779374 15.65726289 -8.37538368 8.95294495 -7.55932617 2.32910156 C-5.0435092 -0.18671541 -3.43875012 0.04572911 0 0 Z " fill="#173B5C" transform="translate(24.559326171875,35.6708984375)"/>
<path d="M0 0 C8.93789761 8.47916445 15.16297614 20.36951923 15.73046875 32.71484375 C16.0507937 48.78708282 14.30800008 60.16294543 4.359375 73.23828125 C3.75416016 74.12386719 3.75416016 74.12386719 3.13671875 75.02734375 C-3.5956072 84.04495465 -16.63714186 91.46693162 -27.640625 93.23828125 C-39.05953986 94.18446917 -51.35142981 94.97208917 -61.640625 89.23828125 C-62.52878906 88.75617188 -63.41695312 88.2740625 -64.33203125 87.77734375 C-68.67984733 85.28383642 -72.9644976 82.66933349 -76.640625 79.23828125 C-76.640625 78.57828125 -76.640625 77.91828125 -76.640625 77.23828125 C-77.300625 77.23828125 -77.960625 77.23828125 -78.640625 77.23828125 C-90.92273849 63.25461552 -92.52888007 47.81627987 -91.8671875 30.05810547 C-91.41568125 24.43860419 -89.62168263 20.03288046 -86.640625 15.23828125 C-86.13660156 14.40296875 -85.63257812 13.56765625 -85.11328125 12.70703125 C-83.69301678 10.48086608 -82.22532352 8.34986162 -80.640625 6.23828125 C-80.03347656 5.42230469 -79.42632812 4.60632813 -78.80078125 3.765625 C-70.21238283 -6.28264585 -57.597319 -12.5785318 -44.625 -14.546875 C-27.21266003 -15.80038115 -13.31117059 -10.97551488 0 0 Z M-60.640625 21.23828125 C-66.30866007 28.49219141 -67.18997773 36.52015516 -66.453125 45.53125 C-64.86871667 53.79988099 -59.39051353 60.20242526 -52.765625 65.046875 C-46.04977508 68.81219527 -39.15589821 69.08706505 -31.640625 68.23828125 C-23.19649954 65.61849717 -16.43950374 60.05025455 -12.203125 52.30078125 C-9.3009514 44.93178393 -9.35525943 35.79925585 -11.48828125 28.23046875 C-14.77705548 20.93942351 -20.08334706 16.44379357 -26.765625 12.30078125 C-38.97199551 7.82137923 -52.17487543 11.84593222 -60.640625 21.23828125 Z " fill="#256638" transform="translate(91.640625,122.76171875)"/>
<path d="M0 0 C6.73884009 5.85272637 11.75627108 14.042989 12.58203125 22.99560547 C13.13908132 31.63982885 13.31132241 39.61763064 8.40625 47.08984375 C7.98214844 47.77175781 7.55804688 48.45367187 7.12109375 49.15625 C1.52291075 57.37419552 -6.80522791 63.88416344 -16.59375 66.08984375 C-28.7643111 67.30190168 -38.89502858 65.85497664 -48.90625 58.40234375 C-56.58683789 51.83117411 -62.22210089 43.10377971 -63.1328125 32.86328125 C-63.58543448 20.94468356 -61.52134491 11.86423793 -53.40625 2.58984375 C-38.39861613 -11.58403269 -16.35204401 -12.04239386 0 0 Z " fill="#FB791F" transform="translate(259.59375,7.91015625)"/>
<path d="M0 0 C4.93210545 7.20263992 11.15481147 19.92795027 10.9296875 28.7578125 C10 31 10 31 7.98046875 32.37109375 C4.66969468 33.63520749 1.35721505 34.86582799 -2 36 C-2.69029297 36.2386377 -3.38058594 36.47727539 -4.09179688 36.72314453 C-42.65873439 49.83214566 -84.1909778 52.56897772 -124 44 C-124.66 43.67 -125.32 43.34 -126 43 C-126 42.34 -126 41.68 -126 41 C-124.906875 41.144375 -123.81375 41.28875 -122.6875 41.4375 C-117.470742 42.09310693 -112.23765253 42.54748223 -107 43 C-107 43.66 -107 44.32 -107 45 C-87.84134043 45.89364692 -69.09438503 46.34339235 -50 44 C-48.91589844 43.86980469 -47.83179688 43.73960937 -46.71484375 43.60546875 C-40.83470073 42.64708582 -35.0162047 41.41668262 -29.1875 40.1875 C-27.96740234 39.93935547 -26.74730469 39.69121094 -25.49023438 39.43554688 C-19.10749709 38.08766092 -13.1762639 36.49183631 -7.17797852 33.92114258 C-4.1297484 32.63194045 -1.04666287 31.69475064 2.125 30.75 C3.24132812 30.41484375 4.35765625 30.0796875 5.5078125 29.734375 C6.74144531 29.37085938 6.74144531 29.37085938 8 29 C6.81549996 22.53909069 4.85910897 16.90778781 2.21875 10.89453125 C0.98688497 7.9688518 -0.0328514 5.02233938 -1 2 C-2.0725 2.309375 -3.145 2.61875 -4.25 2.9375 C-5.4875 3.288125 -6.725 3.63875 -8 4 C-8.9590625 4.2784375 -8.9590625 4.2784375 -9.9375 4.5625 C-13.26294547 5.26789752 -16.62440075 5.60618009 -20 6 C-20 5.34 -20 4.68 -20 4 C-17.42032203 3.13310822 -14.83723873 2.28126211 -12.25 1.4375 C-11.52039063 1.19064453 -10.79078125 0.94378906 -10.0390625 0.68945312 C-9.33007812 0.46064453 -8.62109375 0.23183594 -7.890625 -0.00390625 C-7.24125977 -0.21861572 -6.59189453 -0.4333252 -5.92285156 -0.65454102 C-3.60927101 -1.07019826 -2.19122918 -0.83005044 0 0 Z " fill="#132C48" transform="translate(354,152)"/>
<path d="M0 0 C1.1449292 0.00797607 1.1449292 0.00797607 2.31298828 0.01611328 C3.1007666 0.01885254 3.88854492 0.0215918 4.70019531 0.02441406 C10.97547018 0.13156792 17.10854356 0.78019022 23.31298828 1.70361328 C24.16231934 1.82953857 25.01165039 1.95546387 25.88671875 2.08520508 C29.8014271 2.71947793 32.92475953 3.41884301 36.43798828 5.32861328 C30.03434001 5.53518258 23.90778011 5.09952536 17.56298828 4.32861328 C10.48822928 3.47186968 3.5732484 3.07678057 -3.56201172 3.32861328 C-5.00279071 8.26987644 -4.2757749 12.87133371 -3.68701172 17.89111328 C-3.54972656 19.16631836 -3.54972656 19.16631836 -3.40966797 20.46728516 C-2.9970067 24.1725184 -2.53172926 27.72250803 -1.56201172 31.32861328 C-0.91240479 31.37872559 -0.26279785 31.42883789 0.40649414 31.48046875 C3.3967173 31.71492309 6.3860628 31.95920632 9.37548828 32.20361328 C10.39707031 32.28224609 11.41865234 32.36087891 12.47119141 32.44189453 C18.6283502 32.95335181 24.44018094 33.84010635 30.43798828 35.32861328 C30.43798828 35.98861328 30.43798828 36.64861328 30.43798828 37.32861328 C29.06275693 37.18497801 27.68781426 37.03857811 26.31298828 36.89111328 C25.54728516 36.80990234 24.78158203 36.72869141 23.99267578 36.64501953 C22.21296803 36.42459701 20.44000704 36.14510895 18.67626953 35.82080078 C13.95300971 35.10291087 9.22224429 34.97721523 4.45166016 34.81103516 C0.64856186 34.63313206 -1.32835005 34.48438773 -4.56201172 32.32861328 C-5.28873355 29.6819103 -5.82265069 27.21273978 -6.24951172 24.51611328 C-6.37543701 23.7587085 -6.5013623 23.00130371 -6.63110352 22.22094727 C-7.65047929 15.65677461 -8.37806922 8.95245667 -7.56201172 2.32861328 C-5.04557903 -0.1878194 -3.43961188 0.04489532 0 0 Z " fill="#243854" transform="translate(24.56201171875,35.67138671875)"/>
<path d="M0 0 C0.66 0 1.32 0 2 0 C3.3302109 1.51227067 4.59027591 3.08669024 5.8125 4.6875 C8.69707937 8.38514752 11.63976836 11.72377415 15 15 C20.24751799 20.67707145 25.17341805 26.59599906 30.01953125 32.6171875 C31.88836951 34.95531012 31.88836951 34.95531012 33.76171875 36.6953125 C35 38 35 38 35 40 C35.66 40 36.32 40 37 40 C38.3046875 41.36328125 38.3046875 41.36328125 39.875 43.3125 C51.85908262 57.28574387 67.01903589 68.41833051 83.4609375 76.59765625 C85.76395497 77.86963051 87.28391478 79.03292273 89 81 C83.27214043 80.5302071 79.38680247 78.22419691 74.625 75.25 C73.4505835 74.52441895 73.4505835 74.52441895 72.25244141 73.78417969 C63.94221604 68.52522136 56.45618359 62.38750121 49 56 C48.16597656 55.30777344 47.33195312 54.61554688 46.47265625 53.90234375 C42.55501386 50.60129767 39.1520902 47.06184672 35.83984375 43.15625 C33.8173227 40.78590685 31.72586152 38.48861695 29.625 36.1875 C26.51471149 32.74621795 23.53521688 29.23678702 20.625 25.625 C16.47394738 20.49080334 12.08003189 15.64863067 7.578125 10.82421875 C0 2.52272727 0 2.52272727 0 0 Z " fill="#142D46" transform="translate(104,100)"/>
<path d="M0 0 C0.42667969 0.3403125 0.85335937 0.680625 1.29296875 1.03125 C21.01037314 16.31732021 43.5128268 25.72776978 68 30 C68 30.33 68 30.66 68 31 C62.68539694 32.05879543 58.56558306 31.81303792 53.3125 30.375 C52.61189453 30.18969727 51.91128906 30.00439453 51.18945312 29.81347656 C44.87137008 28.07960994 38.92718305 25.79709762 33 23 C32.37593262 22.70577148 31.75186523 22.41154297 31.10888672 22.10839844 C8.67819414 11.44364835 8.67819414 11.44364835 0 3 C0 2.01 0 1.02 0 0 Z " fill="#19334A" transform="translate(180,134)"/>
<path d="M0 0 C5.62989423 8.44484134 4.38503315 23.66026653 2.56933594 33.28222656 C1.5004702 37.0892242 -0.10475055 40.54237777 -2 44 C-2.40347656 44.76828125 -2.80695313 45.5365625 -3.22265625 46.328125 C-4.09478451 47.91608613 -5.03659988 49.4656961 -6 51 C-6.99 50.67 -7.98 50.34 -9 50 C-7.35 47.36 -5.7 44.72 -4 42 C-4.66 42 -5.32 42 -6 42 C-6 42.66 -6 43.32 -6 44 C-6.66 43.67 -7.32 43.34 -8 43 C-8 42.01 -8 41.02 -8 40 C-7.34 40 -6.68 40 -6 40 C-6 39.01 -6 38.02 -6 37 C-4.35 37 -2.7 37 -1 37 C1.0294254 24.5335297 0.97620479 12.54047686 0 0 Z " fill="#235735" transform="translate(104,143)"/>
<path d="M0 0 C0.33 0 0.66 0 1 0 C1.66 3.96 2.32 7.92 3 12 C4.55589844 12.12117188 6.11179687 12.24234375 7.71484375 12.3671875 C9.78908922 12.53613057 11.86330652 12.70541981 13.9375 12.875 C14.95908203 12.95363281 15.98066406 13.03226563 17.03320312 13.11328125 C23.19036192 13.62473853 29.00219266 14.51149307 35 16 C35 16.66 35 17.32 35 18 C33.62476865 17.85636473 32.24982598 17.70996483 30.875 17.5625 C30.10929687 17.48128906 29.34359375 17.40007812 28.5546875 17.31640625 C26.77497975 17.09598373 25.00201875 16.81649567 23.23828125 16.4921875 C18.51502143 15.77429759 13.78425601 15.64860195 9.01367188 15.48242188 C5.21057358 15.30451878 3.23366167 15.15577445 0 13 C-0.29296875 9.9609375 -0.29296875 9.9609375 -0.1875 6.375 C-0.16042969 5.18648437 -0.13335938 3.99796875 -0.10546875 2.7734375 C-0.07066406 1.85820313 -0.03585938 0.94296875 0 0 Z " fill="#1E3651" transform="translate(20,55)"/>
<path d="M0 0 C0.74476089 0.00141495 1.48952179 0.0028299 2.2568512 0.00428772 C4.61007898 0.00983636 6.96320775 0.02237892 9.31640625 0.03515625 C10.92252466 0.0401779 12.52864457 0.04473964 14.13476562 0.04882812 C18.04951668 0.0597889 21.96419474 0.07701741 25.87890625 0.09765625 C25.87890625 0.75765625 25.87890625 1.41765625 25.87890625 2.09765625 C18.45667203 3.0914942 11.17447723 3.24809445 3.69140625 3.22265625 C2.54220703 3.22652344 1.39300781 3.23039063 0.20898438 3.234375 C-0.90412109 3.23308594 -2.01722656 3.23179687 -3.1640625 3.23046875 C-4.1646167 3.22934082 -5.1651709 3.22821289 -6.19604492 3.22705078 C-9.23997128 3.0923975 -12.12858178 2.65762272 -15.12109375 2.09765625 C-15.12109375 1.76765625 -15.12109375 1.43765625 -15.12109375 1.09765625 C-10.04947925 0.26059366 -5.14345236 -0.0375178 0 0 Z " fill="#162F48" transform="translate(264.12109375,164.90234375)"/>
<path d="M0 0 C3.68216397 3.62850766 7.2054418 7.36763872 10.6875 11.1875 C15.97218694 16.95388996 21.41303821 22.52428302 27 28 C24.92446352 28.5534764 23.15634036 29 21 29 C20.814375 28.319375 20.62875 27.63875 20.4375 26.9375 C18.74724827 23.48350734 16.62520363 21.5209408 13.8671875 18.89453125 C11.41808247 16.40956067 9.45282115 13.67744332 7.41796875 10.8515625 C5.87931311 8.75125003 5.87931311 8.75125003 3.1875 6.25 C1.04459244 4.04586651 0.33336063 3.00024564 0 0 Z " fill="#1A344C" transform="translate(152,105)"/>
<path d="M0 0 C0.33 0 0.66 0 1 0 C1.57363865 13.8788684 0.61055841 23.23617458 -9 34 C-9.99 34.495 -9.99 34.495 -11 35 C-9.66749209 31.4124787 -8.169283 28.1635377 -6 25 C-5.34 25 -4.68 25 -4 25 C-3.67 21.04 -3.34 17.08 -3 13 C-2.01 12.67 -1.02 12.34 0 12 C0 8.04 0 4.08 0 0 Z " fill="#D58948" transform="translate(271,29)"/>
<path d="M0 0 C11 3.66666667 22 7.33333333 33 11 C32.01 11.66 31.02 12.32 30 13 C27.39891358 12.44240905 25.06531138 11.7920188 22.5625 10.9375 C21.85399902 10.70434082 21.14549805 10.47118164 20.41552734 10.23095703 C2.90936564 4.36404846 2.90936564 4.36404846 0 0 Z " fill="#142C46" transform="translate(194,181)"/>
<path d="M0 0 C-2.4169988 2.4169988 -3.69807726 2.38568879 -7 3 C-7.77561279 3.32726074 -8.55122559 3.65452148 -9.3503418 3.99169922 C-12.03065787 5.01166654 -14.23481411 5.38826624 -17.08203125 5.6328125 C-18.47905273 5.75849609 -18.47905273 5.75849609 -19.90429688 5.88671875 C-20.86400391 5.96535156 -21.82371094 6.04398438 -22.8125 6.125 C-23.79154297 6.21136719 -24.77058594 6.29773438 -25.77929688 6.38671875 C-28.18568978 6.59801179 -30.59246612 6.80220763 -33 7 C-29.95016373 4.38636488 -27.63311717 3.48943641 -23.68359375 2.8671875 C-22.16668945 2.61775391 -22.16668945 2.61775391 -20.61914062 2.36328125 C-19.56919922 2.20214844 -18.51925781 2.04101562 -17.4375 1.875 C-15.35256914 1.54090099 -13.26791927 1.20504243 -11.18359375 0.8671875 C-9.79998657 0.65231689 -9.79998657 0.65231689 -8.38842773 0.43310547 C-2.11400199 -0.70466733 -2.11400199 -0.70466733 0 0 Z " fill="#1C374D" transform="translate(324,160)"/>
<path d="M0 0 C1.051875 0.309375 2.10375 0.61875 3.1875 0.9375 C7.66667001 2.18579328 11.34460318 3 16 3 C16 3.66 16 4.32 16 5 C15.01 5.495 15.01 5.495 14 6 C18.4378561 7.11165232 22.76956386 7.11527763 27.3125 7.0625 C28.42334961 7.05573242 28.42334961 7.05573242 29.55664062 7.04882812 C31.37112899 7.03712175 33.18557534 7.01918898 35 7 C29.68901313 10.54065791 22.23305231 9.61592616 16 9 C9.33841177 7.55182865 4.30475964 5.34383955 0 0 Z " fill="#DE803E" transform="translate(211,65)"/>
<path d="M0 0 C4.9841289 4.18436495 9.70917483 8.52661933 14.3125 13.125 C14.93189453 13.73214844 15.55128906 14.33929688 16.18945312 14.96484375 C16.78306641 15.55652344 17.37667969 16.14820312 17.98828125 16.7578125 C18.51977783 17.2852002 19.05127441 17.81258789 19.59887695 18.35595703 C21.10975212 20.12878041 22.04418606 21.88369858 23 24 C22.01 24 21.02 24 20 24 C20 23.34 20 22.68 20 22 C19.34 22 18.68 22 18 22 C15 18.53846154 15 18.53846154 15 16 C14.34 16 13.68 16 13 16 C13 15.34 13 14.68 13 14 C12.34 14 11.68 14 11 14 C9.79844133 12.56480492 8.60180017 11.12492768 7.44140625 9.65625 C5.97501112 7.97128649 4.44970566 6.67893843 2.6875 5.3125 C1.800625 4.549375 0.91375 3.78625 0 3 C0 2.01 0 1.02 0 0 Z " fill="#1C344C" transform="translate(120,70)"/>
<path d="M0 0 C3.2542015 2.83430453 4.5206753 4.68607774 5 9 C5.66 9 6.32 9 7 9 C8.0896512 10.1868363 9.12248565 11.42619706 10.125 12.6875 C13.22195139 16.37124218 16.28392367 18.70626598 20.49609375 20.9921875 C20.99238281 21.32476562 21.48867188 21.65734375 22 22 C22 22.66 22 23.32 22 24 C17.03231242 22.44759763 12.82132943 19.48945219 9 16 C9 15.34 9 14.68 9 14 C8.34 14 7.68 14 7 14 C5.2734375 11.953125 5.2734375 11.953125 3.375 9.25 C2.74335938 8.36828125 2.11171875 7.4865625 1.4609375 6.578125 C0 4 0 4 0 0 Z " fill="#265534" transform="translate(6,186)"/>
<path d="M0 0 C1 3 1 3 0.2578125 4.8984375 C-1.61141872 8.02156295 -3.68267499 10.98796733 -5.7578125 13.9765625 C-7.17439306 15.88835656 -7.17439306 15.88835656 -7 18 C-7.99 18 -8.98 18 -10 18 C-9.419087 14.04695786 -8.21201509 11.27029321 -6.125 7.875 C-5.61195313 7.02679688 -5.09890625 6.17859375 -4.5703125 5.3046875 C-3.18410273 3.27020053 -1.8083094 1.6567146 0 0 Z " fill="#2C5E3F" transform="translate(13,127)"/>
<path d="M0 0 C0.66 0.33 1.32 0.66 2 1 C0.30966884 3.57997914 -0.91334005 4.95048003 -3.625 6.5 C-6.16581664 7.76880523 -6.16581664 7.76880523 -6.8125 10.1875 C-6.874375 10.785625 -6.93625 11.38375 -7 12 C-7.66 12 -8.32 12 -9 12 C-9 13.65 -9 15.3 -9 17 C-9.66 17 -10.32 17 -11 17 C-11.33 17.66 -11.66 18.32 -12 19 C-12.66 19 -13.32 19 -14 19 C-11.93703719 10.74814875 -6.60591066 5.03307479 0 0 Z " fill="#D8834B" transform="translate(213,5)"/>
<path d="M0 0 C6.60908574 0.36049559 11.61725832 2.06114958 17 6 C18.76171875 8.16796875 18.76171875 8.16796875 20 10 C16.43351321 9.67577393 14.37939232 8.65750369 11.625 6.5 C8.07234034 3.79060901 5.42198874 3.270734 1 3 C0.67 2.01 0.34 1.02 0 0 Z " fill="#E17630" transform="translate(240,0)"/>
<path d="M0 0 C1.65 0 3.3 0 5 0 C5 0.66 5 1.32 5 2 C3.0848421 2.81604999 1.16781166 3.62770632 -0.75 4.4375 C-1.81734375 4.88996094 -2.8846875 5.34242188 -3.984375 5.80859375 C-8.90280299 7.75175507 -12.68047388 8.10229858 -18 8 C-18 7.34 -18 6.68 -18 6 C-17.40832031 5.95101562 -16.81664062 5.90203125 -16.20703125 5.8515625 C-11.76362115 5.43114197 -8.11636075 4.81604151 -4 3 C-3.01 3 -2.02 3 -1 3 C-0.67 2.01 -0.34 1.02 0 0 Z " fill="#205431" transform="translate(75,208)"/>
<path d="M0 0 C6.74427572 -0.86465073 11.71153848 2.51179803 16.91015625 6.4453125 C18.30178706 7.59678008 19.65571756 8.79359268 21 10 C20.01 10.495 20.01 10.495 19 11 C16 10 16 10 14.6875 8.625 C10.75956447 4.84254357 4.9792842 3.09129936 0 1 C0 0.67 0 0.34 0 0 Z " fill="#275437" transform="translate(69,112)"/>
<path d="M0 0 C0 0.99 0 1.98 0 3 C-1.9147688 3.36428777 -3.83192293 3.71605306 -5.75 4.0625 C-6.81734375 4.25972656 -7.8846875 4.45695313 -8.984375 4.66015625 C-11.74771905 4.97156937 -13.40946617 4.8991416 -16 4 C-10.49450129 1.05519837 -6.22582019 -0.17788058 0 0 Z " fill="#E17632" transform="translate(231,0)"/>
<path d="M0 0 C0.66 0.33 1.32 0.66 2 1 C1.8125 3.875 1.8125 3.875 1 7 C-1.4375 8.125 -1.4375 8.125 -4 9 C-5.34410262 11.01735205 -5.34410262 11.01735205 -6 13 C-6.99 13 -7.98 13 -9 13 C-9.33 12.01 -9.66 11.02 -10 10 C-9.44570312 9.52949219 -8.89140625 9.05898437 -8.3203125 8.57421875 C-7.59585938 7.95160156 -6.87140625 7.32898438 -6.125 6.6875 C-5.40570313 6.07261719 -4.68640625 5.45773438 -3.9453125 4.82421875 C-1.80820669 2.9587676 -1.80820669 2.9587676 0 0 Z " fill="#2D5C3C" transform="translate(77,177)"/>
<path d="M0 0 C0.515625 0.5775 1.03125 1.155 1.5625 1.75 C3.6433441 3.67077917 5.23824795 4.75724016 7.6875 6.0625 C11 8 11 8 12 11 C7.75707468 9.39369175 3.72974893 7.4231838 -0.3125 5.375 C-1.28026367 4.88773437 -1.28026367 4.88773437 -2.26757812 4.390625 C-3.84597541 3.59558044 -5.42311694 2.79804366 -7 2 C-6.401875 1.855625 -5.80375 1.71125 -5.1875 1.5625 C-3.43849596 1.1127561 -1.71322977 0.57107659 0 0 Z " fill="#1E364D" transform="translate(73,75)"/>
<path d="M0 0 C6.93 0.33 13.86 0.66 21 1 C17.33244001 3.44503999 15.42521863 3.26831152 11.0625 3.25 C9.83660156 3.25515625 8.61070313 3.2603125 7.34765625 3.265625 C4.26258948 3.02083557 2.57653706 2.62728656 0 1 C0 0.67 0 0.34 0 0 Z " fill="#245634" transform="translate(42,190)"/>
<path d="M0 0 C0.66 0.33 1.32 0.66 2 1 C0.33333333 2.66666667 -1.33333333 4.33333333 -3 6 C-3.66 6.763125 -4.32 7.52625 -5 8.3125 C-7 10 -7 10 -9.75 10.25 C-10.4925 10.1675 -11.235 10.085 -12 10 C-8.87562143 5.44361459 -5.02279976 2.2830908 0 0 Z " fill="#305C41" transform="translate(29,114)"/>
<path d="M0 0 C0.66 0 1.32 0 2 0 C3.23026045 3.69078134 2.75548629 6.67162713 2.25 10.4375 C2.17523438 11.10587891 2.10046875 11.77425781 2.0234375 12.46289062 C1.5033301 16.43856006 0.75185917 19.04401941 -2 22 C-1.84660156 21.18273437 -1.69320312 20.36546875 -1.53515625 19.5234375 C-0.9322218 15.55375228 -0.65842036 11.63053967 -0.4375 7.625 C-0.39431641 6.88894531 -0.35113281 6.15289062 -0.30664062 5.39453125 C-0.20156201 3.59651932 -0.10037907 1.79828042 0 0 Z " fill="#335D42" transform="translate(81,154)"/>
<path d="M0 0 C0.33 0 0.66 0 1 0 C1 5.61 1 11.22 1 17 C0.34 17 -0.32 17 -1 17 C-1.66 18.32 -2.32 19.64 -3 21 C-3 18.36 -3 15.72 -3 13 C-2.01 12.67 -1.02 12.34 0 12 C0 8.04 0 4.08 0 0 Z " fill="#E1843A" transform="translate(271,29)"/>
<path d="M0 0 C0.33 0 0.66 0 1 0 C1.054138 2.24973447 1.09285491 4.49984383 1.125 6.75 C1.14820313 8.00296875 1.17140625 9.2559375 1.1953125 10.546875 C1.01537302 13.72820492 0.68998582 15.36521896 -1 18 C-1.88327729 14.9473937 -2.1633007 12.17494823 -2.1875 9 C-2.20167969 8.154375 -2.21585938 7.30875 -2.23046875 6.4375 C-1.98543096 3.84591384 -1.30584901 2.22975008 0 0 Z " fill="#1F5730" transform="translate(25,153)"/>
<path d="M0 0 C2.15377564 2.62198774 3.40072174 4.64404172 4 8 C4.66 8 5.32 8 6 8 C6.33 9.32 6.66 10.64 7 12 C7.99 12 8.98 12 10 12 C10.66 13.65 11.32 15.3 12 17 C8.66227007 15.59844241 6.98250943 14.0490314 4.875 11.125 C4.37742188 10.44695313 3.87984375 9.76890625 3.3671875 9.0703125 C1.26235444 5.88299386 0 3.87557547 0 0 Z " fill="#CE8042" transform="translate(199,48)"/>
<path d="M0 0 C0.54527344 0.19335938 1.09054688 0.38671875 1.65234375 0.5859375 C7.0438052 2.44760453 12.40921726 3.87655666 18 5 C18 5.33 18 5.66 18 6 C11.58939027 6.40066311 6.82544138 5.80869495 1 3 C0.67 2.01 0.34 1.02 0 0 Z " fill="#235532" transform="translate(29,209)"/>
<path d="M0 0 C0.42796875 0.57621094 0.8559375 1.15242187 1.296875 1.74609375 C2.38977147 3.19242693 3.50288999 4.62382305 4.640625 6.03515625 C5.17171875 6.70417969 5.7028125 7.37320313 6.25 8.0625 C6.79140625 8.73410156 7.3328125 9.40570313 7.890625 10.09765625 C8.25671875 10.72542969 8.6228125 11.35320312 9 12 C8.67 12.99 8.34 13.98 8 15 C8 14.34 8 13.68 8 13 C7.34 13 6.68 13 6 13 C4.5 11.625 4.5 11.625 3 10 C2.34 9.34 1.68 8.68 1 8 C0.43479997 5.34462628 0.26211802 2.70855287 0 0 Z " fill="#295639" transform="translate(26,172)"/>
<path d="M0 0 C0.33 0 0.66 0 1 0 C1.66 3.96 2.32 7.92 3 12 C5.97 12.33 8.94 12.66 12 13 C12 13.33 12 13.66 12 14 C10.18757948 14.02687279 8.37504767 14.04633715 6.5625 14.0625 C5.55316406 14.07410156 4.54382813 14.08570312 3.50390625 14.09765625 C1 14 1 14 0 13 C-0.07258946 10.81360547 -0.08373783 8.62499611 -0.0625 6.4375 C-0.05347656 5.23996094 -0.04445313 4.04242188 -0.03515625 2.80859375 C-0.02355469 1.88175781 -0.01195313 0.95492187 0 0 Z " fill="#152F4E" transform="translate(20,55)"/>
<path d="M0 0 C0 0.66 0 1.32 0 2 C1.98 2 3.96 2 6 2 C6 2.33 6 2.66 6 3 C3.93757383 3.02717692 1.87504297 3.0464758 -0.1875 3.0625 C-1.33605469 3.07410156 -2.48460937 3.08570312 -3.66796875 3.09765625 C-6.59300586 3.01192832 -9.16316291 2.67849023 -12 2 C-12 1.67 -12 1.34 -12 1 C-7.95858806 0.36605303 -4.0934693 -0.12404452 0 0 Z " fill="#2B5437" transform="translate(55,108)"/>
<path d="M0 0 C0.99 0 1.98 0 3 0 C5.85351557 3.23934303 7.86470894 6.70120583 8.3125 11 C8.1578125 11.99 8.1578125 11.99 8 13 C5.81302498 10.20375042 4.00847187 7.36692128 2.3125 4.25 C1.65701172 3.05117187 1.65701172 3.05117187 0.98828125 1.828125 C0.49908203 0.92320312 0.49908203 0.92320312 0 0 Z " fill="#225331" transform="translate(95,130)"/>
<path d="M0 0 C3.5625 1.1875 3.5625 1.1875 6.5625 3.1875 C6.5625 3.8475 6.5625 4.5075 6.5625 5.1875 C5.12318883 4.73488642 3.68611001 4.27517021 2.25 3.8125 C1.44949219 3.55726563 0.64898437 3.30203125 -0.17578125 3.0390625 C-2.4375 2.1875 -2.4375 2.1875 -5.4375 0.1875 C-3.4375 -0.8125 -3.4375 -0.8125 0 0 Z " fill="#2B5B3A" transform="translate(63.4375,132.8125)"/>
<path d="M0 0 C0.33 0.99 0.66 1.98 1 3 C-0.2608012 4.03319813 -1.53403258 5.05124379 -2.8125 6.0625 C-3.87404297 6.91521484 -3.87404297 6.91521484 -4.95703125 7.78515625 C-5.63121094 8.18605469 -6.30539063 8.58695313 -7 9 C-7.99 8.67 -8.98 8.34 -10 8 C-6.7 5.36 -3.4 2.72 0 0 Z " fill="#255135" transform="translate(91,198)"/>
<path d="M0 0 C0.33 0.99 0.66 1.98 1 3 C0.34 3 -0.32 3 -1 3 C-1 4.65 -1 6.3 -1 8 C-1.66 8 -2.32 8 -3 8 C-3.33 8.66 -3.66 9.32 -4 10 C-4.66 10 -5.32 10 -6 10 C-4.125 4.25 -4.125 4.25 -3 2 C-2.01 2 -1.02 2 0 2 C0 1.34 0 0.68 0 0 Z " fill="#E3813D" transform="translate(205,14)"/>
<path d="M0 0 C1.65 0 3.3 0 5 0 C6.41898766 2.64877696 7.31911019 5.08014819 8 8 C6.66102417 7.04956626 5.32894573 6.08940853 4 5.125 C3.2575 4.59132813 2.515 4.05765625 1.75 3.5078125 C1.1725 3.01023437 0.595 2.51265625 0 2 C0 1.34 0 0.68 0 0 Z " fill="#1B3751" transform="translate(96,93)"/>
<path d="M0 0 C1.32 0 2.64 0 4 0 C3.25 2.4375 3.25 2.4375 2 5 C-0.125 5.8125 -0.125 5.8125 -2 6 C-1.49396008 3.83125748 -1.00016187 2.00032373 0 0 Z " fill="#F17726" transform="translate(258,59)"/>
<path d="M0 0 C-2.79908133 2.79908133 -5.13081763 2.72362983 -9 3 C-9.66 2.34 -10.32 1.68 -11 1 C-6.87831311 -0.62950412 -4.29299643 -1.26264601 0 0 Z " fill="#132F49" transform="translate(354,186)"/>
<path d="M0 0 C1.65 1.32 3.3 2.64 5 4 C4.67 4.66 4.34 5.32 4 6 C1.4375 6.625 1.4375 6.625 -1 7 C-0.67 4.69 -0.34 2.38 0 0 Z " fill="#E77C35" transform="translate(261,11)"/>
<path d="M0 0 C2.75 -0.25 2.75 -0.25 6 0 C8.375 2 8.375 2 10 4 C8.72125 3.71125 7.4425 3.4225 6.125 3.125 C5.40570313 2.96257813 4.68640625 2.80015625 3.9453125 2.6328125 C2 2 2 2 0 0 Z " fill="#193047" transform="translate(69,44)"/>
<path d="M0 0 C3.91402949 1.26941497 5.79072873 2.51167694 8 6 C5.6875 5.8125 5.6875 5.8125 3 5 C1.1875 2.4375 1.1875 2.4375 0 0 Z " fill="#DA8138" transform="translate(252,4)"/>
<path d="M0 0 C2.64 0.33 5.28 0.66 8 1 C7.67 1.66 7.34 2.32 7 3 C4.69 2.67 2.38 2.34 0 2 C0 1.34 0 0.68 0 0 Z " fill="#112A48" transform="translate(228,193)"/>
<path d="M0 0 C2.31 0.66 4.62 1.32 7 2 C6.67 2.99 6.34 3.98 6 5 C5.01 5.33 4.02 5.66 3 6 C2.01 4.02 1.02 2.04 0 0 Z " fill="#233D56" transform="translate(78,46)"/>
</svg>
